# xmcd
#
# Track frame offsets: 
#        150
#        21795
#        41095
#        63050
#        83880
#        97047
#        115875
#        141460
#        167190
#        186932
#        203865
#        223205
#        246542
#        264722
#
# Disc length: 3769 seconds
#
# Revision: 0
# Processed by: cddbd v1.5.2PL0 Copyright (c) Steve Scherf et al.
# Submitted via: ExactAudioCopy v0.99pb3
#
DISCID=da0eb70e
DTITLE=Andrew 'Blueblood Mac' Mahon - Go Get My Baby
DYEAR=1996
DGENRE=Blues
TTITLE0=Go Get My Baby
TTITLE1=I Wonder Why
TTITLE2=Change My Way Of Living
TTITLE3=You Got To Help Yourself
TTITLE4=Give Up And Let Me Go
TTITLE5=What We Could Do Later On
TTITLE6=You Don't Have To Go
TTITLE7=It Hurts Me Too
TTITLE8=Got My Mojo Working
TTITLE9=Little Red Rooster
TTITLE10=So Glad
TTITLE11=Stranger In Your Land
TTITLE12=Red Light
TTITLE13=Mojo Hand
EXTD=
EXTT0=
EXTT1=
EXTT2=
EXTT3=
EXTT4=
EXTT5=
EXTT6=
EXTT7=
EXTT8=
EXTT9=
EXTT10=
EXTT11=
EXTT12=
EXTT13=
PLAYORDER=
